<?xml version="1.0" standalone="no"?><!DOCTYPE svg PUBLIC "-//W3C//DTD SVG 1.1//EN" "http://www.w3.org/Graphics/SVG/1.1/DTD/svg11.dtd"><svg t="1598340687579" class="icon" viewBox="0 0 1024 1024" version="1.1" xmlns="http://www.w3.org/2000/svg" p-id="5322" xmlns:xlink="http://www.w3.org/1999/xlink" width="200" height="200"><defs><style type="text/css"></style></defs><path d="M925.059459 1021.232432H96.864865c-8.302703 0-14.52973-6.918919-14.52973-14.529729s6.918919-14.52973 14.52973-14.52973h828.194594c8.302703 0 14.52973 6.918919 14.52973 14.52973s-6.227027 14.52973-14.52973 14.529729z" fill="#C5DCFA" p-id="5323"></path><path d="M848.951351 702.962162c0 199.264865-150.832432 315.502703-336.951351 315.502703-124.540541 0-233.167568-51.891892-291.286486-145.989189-29.059459-46.356757-45.664865-103.783784-45.664865-169.513514 0-172.281081 125.232432-312.043243 208.951351-447.654054 60.886486-98.248649 195.113514-98.248649 255.308108 0 59.502703 96.864865 143.913514 201.340541 184.735135 316.194595 15.913514 42.897297 24.908108 86.486486 24.908108 131.459459z" fill="#4988FD" p-id="5324"></path><path d="M848.951351 702.962162c0 199.264865-150.832432 315.502703-336.951351 315.502703-74.032432 0-142.52973-18.681081-197.881081-53.275676-31.827027-20.064865-14.52973-68.497297 22.832432-63.654054 22.140541 2.767568 44.281081 4.151351 67.805406 4.151351 213.794595 0 390.918919-121.772973 419.978378-334.875675 15.221622 43.589189 24.216216 87.178378 24.216216 132.151351zM408.908108 220.713514c-42.897297-47.048649-86.486486-116.92973-110.702703-157.751352-5.535135-9.686486-6.918919-20.756757-3.459459-31.827027 3.459459-10.378378 11.07027-18.681081 20.756757-22.832432 103.091892-41.513514 157.059459 95.481081 384.691892 24.908108L599.87027 219.32973l-190.962162 1.383784z" fill="#3973F4" p-id="5325"></path><path d="M898.767568 360.475676c-26.291892 0-60.194595-24.908108-105.85946-78.183784-51.891892-60.194595-88.562162-89.945946-111.394594-89.945946-16.605405 0-31.135135 16.605405-52.583784 41.513513-6.227027 7.610811-17.989189 8.994595-26.291892 2.075676-7.610811-6.227027-8.994595-17.989189-2.075676-26.291892 22.140541-26.983784 45.664865-54.659459 80.951352-54.659459h0.691891c36.67027 0 76.8 29.751351 139.762163 103.091892 59.502703 69.189189 78.183784 65.037838 78.875675 65.037838 1.383784-1.383784 4.151351-8.302703 4.151352-14.52973 0-10.378378 8.302703-18.681081 18.681081-18.681081 10.378378 0 18.681081 8.302703 18.681081 18.681081 0 4.151351-0.691892 39.437838-28.367568 49.816216-5.535135 1.383784-10.378378 2.075676-15.221621 2.075676z" fill="#3973F4" p-id="5326"></path><path d="M730.637838 336.951351c-10.378378 0-18.681081-8.302703-18.681081-18.681081 0-39.437838-18.681081-91.32973-44.972973-102.4-13.145946-5.535135-29.751351 0.691892-48.432433 19.372973-6.918919 6.918919-18.681081 6.918919-26.291892 0-6.918919-6.918919-6.918919-18.681081 0-26.291892 37.362162-37.362162 69.189189-35.978378 88.562163-27.675675 47.048649 19.372973 67.805405 92.021622 67.805405 136.994594 0 10.378378-8.302703 18.681081-17.989189 18.681081z" fill="#3973F4" p-id="5327"></path><path d="M509.924324 833.037838c-12.454054 0-22.832432-10.378378-22.832432-22.832433V781.837838c-20.756757-1.383784-41.513514-6.227027-58.810811-14.52973-11.762162-5.535135-17.297297-19.372973-13.145946-31.135135 3.459459-10.378378 13.145946-17.297297 23.524324-17.297297 3.459459 0 6.918919 0.691892 10.378379 2.075675 11.762162 5.535135 30.443243 11.762162 52.583784 11.762163 31.135135 0 52.583784-17.297297 52.583783-42.205406 0-22.832432-15.221622-38.054054-52.583783-53.275676-45.664865-17.989189-87.87027-41.513514-87.870271-94.097297 0-43.589189 29.751351-77.491892 76.108108-87.87027v-29.05946c0-12.454054 10.378378-22.832432 22.832433-22.832432 12.454054 0 22.832432 10.378378 22.832432 22.832432v26.291892c16.605405 1.383784 31.827027 4.843243 45.664865 10.378379 12.454054 4.843243 18.681081 19.372973 13.837838 32.518919-3.459459 9.686486-13.145946 15.913514-23.524324 15.913513-3.459459 0-6.918919-0.691892-9.686487-2.075676-13.837838-5.535135-28.367568-8.302703-44.281081-8.302702-33.902703 0-46.356757 19.372973-46.356757 35.978378 0 20.756757 13.145946 31.827027 58.118919 50.508108 58.118919 23.524324 83.027027 53.275676 83.027027 99.632433 0 45.664865-31.827027 81.643243-80.259459 92.021621v31.135135c1.383784 12.454054-8.994595 22.832432-22.140541 22.832433z" fill="#FFFFFF" p-id="5328"></path></svg>